<svg width="68" height="68" viewBox="0 0 68 68" fill="none" xmlns="http://www.w3.org/2000/svg"><rect width="68" height="68" rx="12" fill="#FF3700" fill-opacity=".3"/><g clip-path="url(#a)"><g clip-path="url(#b)" stroke="#FF3801" stroke-width="2.25"><path d="M36.25 30.578h14.625l-7.313-13.5-7.312 13.5Z" stroke-linejoin="round"/><path d="M50.875 44.078a6.75 6.75 0 1 0-13.5 0 6.75 6.75 0 0 0 13.5 0ZM25.234 50.492l6.181-6.18c.44-.44.44-1.152 0-1.592l-6.181-6.181a1.125 1.125 0 0 0-1.591 0l-6.181 6.181c-.44.44-.44 1.152 0 1.591l6.181 6.181c.44.44 1.152.44 1.591 0ZM18.813 30.578h10.125c.931 0 1.687-.755 1.687-1.687V18.766c0-.932-.756-1.688-1.688-1.688H18.813c-.931 0-1.687.756-1.687 1.688V28.89c0 .932.756 1.687 1.688 1.687Z"/></g></g><defs><clipPath id="a"><path fill="#fff" d="M16 16h36v36H16z"/></clipPath><clipPath id="b"><path fill="#fff" d="M16 15.953h36v36H16z"/></clipPath></defs></svg>